<svg xmlns="http://www.w3.org/2000/svg" width="64" height="64" viewBox="0 0 64 64">
    <defs>
        <style>
            .a { fill: none; }
            .b { fill: #3468e1; }
            .c { fill: #1d52cc; }
            .d { fill: #194bbf; }
            .e { fill: #00b1ff; }
            .f { fill: #08f; }
            .g { fill: #4bc8ff; }
            .h { fill: #6bf0f7; }
            .i { fill: #45d1d8; }
            .j { fill: #57e1e8; }
        </style>
    </defs>
    <rect class="a" width="64" height="64" />
    <g transform="translate(22.599 1.25)">
        <path class="b" d="M244.415,199.208l-8.924,12.861.092,17.5,8.833,20.788,4.976.6,8.123-26.873-7.176-21.939Z"
            transform="translate(-235.491 -199.205)" />
        <path class="c" d="M246.512,234l-4.844,3.78-1.127,12.743,6.813,14.8,3.249-1.267,3.994-17.938Z"
            transform="translate(-238.396 -219.439)" />
        <path class="d" d="M189.5,34.5l8.925-12.864-.8,14.555-4.838,3.886Z" transform="translate(-189.5 -21.641)" />
    </g>
    <g transform="translate(30.47 19.384)">
        <path class="e" d="M322.566,359.379l-12.543,10.8-12.6-11.232,7.639-22.886,13.546-9.146,4.575,6.032Z"
            transform="translate(-297.423 -326.917)" />
        <path class="f" d="M631.333,36.075l-13.552,9.147.6,7.706s7.011-.639,7.02-.629S631.333,36.075,631.333,36.075Z"
            transform="translate(-610.149 -36.075)" />
        <path class="g" d="M252.982,310.853l-12.6-11.195,8.236-15.312,7.028-.539,9.67,16.045Z"
            transform="translate(-240.386 -267.599)" />
    </g>
    <g transform="translate(7.875 19.464)">
        <path class="h" d="M68.624,278.688,64.191,284.3l.366,26.769,10.065,9.013,16.287-7.751L81.941,287.9Z"
            transform="translate(-64.191 -278.688)" />
        <path class="i" d="M-277.687-36.247l4.235,14.563h8.288l.784-5.361Z" transform="translate(282.131 36.256)" />
        <path class="j" d="M89.029,271.925H97.21l9.761,19.181L90.86,298.731,80.7,289.72Z"
            transform="translate(-80.325 -257.353)" />
    </g>
    <g transform="matrix(0.819, 0.574, -0.574, 0.819, 46.551, 4.767)">
        <path class="e" d="M3.944,17.229,0,8.363,1.3,0,5.575,6.133Z" transform="translate(2.398 0) rotate(8)" />
        <path class="f" d="M1.3,0,3.072,9.308,0,8.243Z" transform="translate(2.385 0.113) rotate(8)" />
        <path class="g" d="M2.505,0,0,3.285l.893,7.831Z" transform="translate(4.584 6.5) rotate(8)" />
    </g>
</svg>